<svg width="1024" height="1024" viewBox="0 0 1024 1024" fill="none" xmlns="http://www.w3.org/2000/svg">
<g clip-path="url(#clip0_1_3)">
<rect width="1024" height="1024" fill="#F2ECF2"/>
<path d="M512.4 947.6C458.8 947.6 409.8 934.4 365.4 908C321 881.2 285.4 845.6 258.6 801.2C232.2 756.4 219 707 219 653C219 624.2 222.4 598.2 229.2 575C236 551.8 246.4 527.4 260.4 501.8L496.8 91.9999H642L478.2 375.2C511.4 368.8 543.8 368.6 575.4 374.6C607.4 380.2 637.4 391.2 665.4 407.6C693.4 423.6 718 444 739.2 468.8C760.8 493.2 777.6 521 789.6 552.2C801.6 583.4 807.6 617 807.6 653C807.6 693.4 799.8 731.4 784.2 767C769 802.6 747.8 834 720.6 861.2C693.8 888 662.4 909.2 626.4 924.8C590.8 940 552.8 947.6 512.4 947.6ZM512.4 822.8C545.2 822.8 574.4 814.8 600 798.8C625.6 782.8 645.8 761.8 660.6 735.8C675.4 709.8 682.8 682.2 682.8 653C682.8 622.2 675.2 594 660 568.4C645.2 542.8 625 522.4 599.4 507.2C573.8 491.6 545.2 483.8 513.6 483.8C480.8 483.8 451.6 491.8 426 507.8C400.4 523.8 380.2 544.6 365.4 570.2C351 595.8 343.8 623.4 343.8 653C343.8 685.4 351.6 714.4 367.2 740C383.2 765.6 404 785.8 429.6 800.6C455.2 815.4 482.8 822.8 512.4 822.8Z" fill="#6750A4"/>
<circle cx="513" cy="653" r="133" stroke="#6750A4" stroke-width="20"/>
<rect x="426.885" y="566.885" width="172.23" height="172.23" stroke="#6750A4" stroke-width="20"/>
<path d="M591.546 568.273L513 725.366L434.454 568.273L591.546 568.273Z" stroke="#6750A4" stroke-width="20"/>
</g>
<defs>
<clipPath id="clip0_1_3">
<rect width="1024" height="1024" fill="white"/>
</clipPath>
</defs>
</svg>
