<svg width="856" height="856" viewBox="0 0 856 856" fill="none" xmlns="http://www.w3.org/2000/svg">
<g clip-path="url(#clip0_5_35)">
<path d="M423.4 855.6C369.8 855.6 320.8 842.4 276.4 816C232 789.2 196.4 753.6 169.6 709.2C143.2 664.4 130 615 130 561C130 532.2 133.4 506.2 140.2 483C147 459.8 157.4 435.4 171.4 409.8L407.8 -5.72205e-05H553L389.2 283.2C422.4 276.8 454.8 276.6 486.4 282.6C518.4 288.2 548.4 299.2 576.4 315.6C604.4 331.6 629 352 650.2 376.8C671.8 401.2 688.6 429 700.6 460.2C712.6 491.4 718.6 525 718.6 561C718.6 601.4 710.8 639.4 695.2 675C680 710.6 658.8 742 631.6 769.2C604.8 796 573.4 817.2 537.4 832.8C501.8 848 463.8 855.6 423.4 855.6ZM423.4 730.8C456.2 730.8 485.4 722.8 511 706.8C536.6 690.8 556.8 669.8 571.6 643.8C586.4 617.8 593.8 590.2 593.8 561C593.8 530.2 586.2 502 571 476.4C556.2 450.8 536 430.4 510.4 415.2C484.8 399.6 456.2 391.8 424.6 391.8C391.8 391.8 362.6 399.8 337 415.8C311.4 431.8 291.2 452.6 276.4 478.2C262 503.8 254.8 531.4 254.8 561C254.8 593.4 262.6 622.4 278.2 648C294.2 673.6 315 693.8 340.6 708.6C366.2 723.4 393.8 730.8 423.4 730.8Z" fill="#E9DDFF"/>
<circle cx="424" cy="561" r="133" stroke="#E9DDFF" stroke-width="20"/>
<rect x="337.885" y="474.885" width="172.23" height="172.23" stroke="#E9DDFF" stroke-width="20"/>
<path d="M502.546 476.273L424 633.366L345.454 476.273L502.546 476.273Z" stroke="#E9DDFF" stroke-width="20"/>
</g>
<defs>
<clipPath id="clip0_5_35">
<rect width="856" height="856" fill="white"/>
</clipPath>
</defs>
</svg>
